<mxfile host="app.diagrams.net" agent="Mozilla/5.0 (Windows NT 10.0; Win64; x64; rv:128.0) Gecko/20100101 Firefox/128.0" version="24.7.5">
  <diagram name="Page-1" id="34SCdHHRecSunIEm1Gn9">
    <mxGraphModel dx="2722" dy="2586" grid="0" gridSize="10" guides="1" tooltips="1" connect="1" arrows="1" fold="1" page="0" pageScale="1" pageWidth="850" pageHeight="1100" math="0" shadow="0">
      <root>
        <mxCell id="0" />
        <mxCell id="1" parent="0" />
        <mxCell id="7WpZ0iJpJy3THZHLrlA9-18" style="edgeStyle=orthogonalEdgeStyle;rounded=0;orthogonalLoop=1;jettySize=auto;html=1;exitX=0.5;exitY=0;exitDx=0;exitDy=0;exitPerimeter=0;" parent="1" edge="1">
          <mxGeometry relative="1" as="geometry">
            <mxPoint x="830" y="169" as="targetPoint" />
            <Array as="points">
              <mxPoint x="999" y="400" />
            </Array>
          </mxGeometry>
        </mxCell>
        <mxCell id="7WpZ0iJpJy3THZHLrlA9-17" style="edgeStyle=orthogonalEdgeStyle;rounded=0;orthogonalLoop=1;jettySize=auto;html=1;" parent="1" edge="1">
          <mxGeometry relative="1" as="geometry">
            <mxPoint x="529" y="350" as="targetPoint" />
          </mxGeometry>
        </mxCell>
        <mxCell id="7WpZ0iJpJy3THZHLrlA9-80" value="" style="sketch=0;outlineConnect=0;fontColor=#232F3E;gradientColor=none;fillColor=#232F3D;strokeColor=none;dashed=0;verticalLabelPosition=bottom;verticalAlign=top;align=center;html=1;fontSize=12;fontStyle=0;aspect=fixed;pointerEvents=1;shape=mxgraph.aws4.users;" parent="1" vertex="1">
          <mxGeometry x="20" y="-621.22" width="78" height="78" as="geometry" />
        </mxCell>
        <mxCell id="7WpZ0iJpJy3THZHLrlA9-81" style="edgeStyle=orthogonalEdgeStyle;rounded=0;orthogonalLoop=1;jettySize=auto;html=1;" parent="1" source="7WpZ0iJpJy3THZHLrlA9-80" target="7WpZ0iJpJy3THZHLrlA9-39" edge="1">
          <mxGeometry relative="1" as="geometry" />
        </mxCell>
        <mxCell id="7WpZ0iJpJy3THZHLrlA9-124" value="" style="group" parent="1" vertex="1" connectable="0">
          <mxGeometry x="1660" y="-920" width="644" height="721" as="geometry" />
        </mxCell>
        <mxCell id="7WpZ0iJpJy3THZHLrlA9-82" value="" style="rounded=0;whiteSpace=wrap;html=1;fillColor=#EAEDED;fontSize=22;fontColor=#FFFFFF;strokeColor=none;labelBackgroundColor=none;" parent="7WpZ0iJpJy3THZHLrlA9-124" vertex="1">
          <mxGeometry width="644" height="585" as="geometry" />
        </mxCell>
        <mxCell id="7WpZ0iJpJy3THZHLrlA9-83" value="1" style="rounded=1;whiteSpace=wrap;html=1;fillColor=#007CBD;strokeColor=none;fontColor=#FFFFFF;fontStyle=1;fontSize=22;labelBackgroundColor=none;" parent="7WpZ0iJpJy3THZHLrlA9-124" vertex="1">
          <mxGeometry x="11.521335807050091" y="19.522899935579122" width="40.07421150278293" height="36.18879012448813" as="geometry" />
        </mxCell>
        <mxCell id="7WpZ0iJpJy3THZHLrlA9-84" value="2" style="rounded=1;whiteSpace=wrap;html=1;fillColor=#007CBD;strokeColor=none;fontColor=#FFFFFF;fontStyle=1;fontSize=22;labelBackgroundColor=none;" parent="7WpZ0iJpJy3THZHLrlA9-124" vertex="1">
          <mxGeometry x="11.518552875695732" y="99.00029240010346" width="40.07421150278293" height="36.18879012448813" as="geometry" />
        </mxCell>
        <mxCell id="7WpZ0iJpJy3THZHLrlA9-85" value="&lt;font style=&quot;font-size: 18px;&quot;&gt;Search books can be done as Guest and Authenticated user. Fetch data from Database, and check if the published image bucket has image mapped to it. If not, refer default image.&lt;/font&gt;" style="text;html=1;align=left;verticalAlign=top;spacingTop=-4;fontSize=14;labelBackgroundColor=none;whiteSpace=wrap;" parent="7WpZ0iJpJy3THZHLrlA9-124" vertex="1">
          <mxGeometry x="63.12" y="19.05" width="557.88" height="57.14" as="geometry" />
        </mxCell>
        <mxCell id="7WpZ0iJpJy3THZHLrlA9-86" value="&lt;font style=&quot;font-size: 18px;&quot;&gt;Only Authorized users can Add book. Validate input, and process the data.&lt;/font&gt;" style="text;html=1;align=left;verticalAlign=top;spacingTop=-4;fontSize=14;labelBackgroundColor=none;whiteSpace=wrap;" parent="7WpZ0iJpJy3THZHLrlA9-124" vertex="1">
          <mxGeometry x="63.12" y="95.71" width="565.88" height="47.14" as="geometry" />
        </mxCell>
        <mxCell id="7WpZ0iJpJy3THZHLrlA9-95" value="3" style="rounded=1;whiteSpace=wrap;html=1;fillColor=#007CBD;strokeColor=none;fontColor=#FFFFFF;fontStyle=1;fontSize=22;labelBackgroundColor=none;" parent="7WpZ0iJpJy3THZHLrlA9-124" vertex="1">
          <mxGeometry x="11.518552875695732" y="156.00048733350576" width="40.07421150278293" height="36.18879012448813" as="geometry" />
        </mxCell>
        <mxCell id="7WpZ0iJpJy3THZHLrlA9-96" value="&lt;font style=&quot;font-size: 18px;&quot;&gt;Save valid data in the database&lt;/font&gt;" style="text;html=1;align=left;verticalAlign=top;spacingTop=-4;fontSize=14;labelBackgroundColor=none;whiteSpace=wrap;" parent="7WpZ0iJpJy3THZHLrlA9-124" vertex="1">
          <mxGeometry x="63.61502782931354" y="155.99665562461746" width="450.83487940630795" height="37.61729499782319" as="geometry" />
        </mxCell>
        <mxCell id="7WpZ0iJpJy3THZHLrlA9-97" value="5" style="rounded=1;whiteSpace=wrap;html=1;fillColor=#007CBD;strokeColor=none;fontColor=#FFFFFF;fontStyle=1;fontSize=22;labelBackgroundColor=none;" parent="7WpZ0iJpJy3THZHLrlA9-124" vertex="1">
          <mxGeometry x="11.521335807050091" y="279.99751137807664" width="40.07421150278293" height="36.18879012448813" as="geometry" />
        </mxCell>
        <mxCell id="7WpZ0iJpJy3THZHLrlA9-98" value="&lt;font style=&quot;font-size: 18px;&quot;&gt;Image upload S3 event to validate image through EventBridge Rule&lt;/font&gt;" style="text;html=1;align=left;verticalAlign=top;spacingTop=-4;fontSize=14;labelBackgroundColor=none;whiteSpace=wrap;" parent="7WpZ0iJpJy3THZHLrlA9-124" vertex="1">
          <mxGeometry x="63.62" y="280.47" width="539.9" height="47.14" as="geometry" />
        </mxCell>
        <mxCell id="7WpZ0iJpJy3THZHLrlA9-99" value="6" style="rounded=1;whiteSpace=wrap;html=1;fillColor=#007CBD;strokeColor=none;fontColor=#FFFFFF;fontStyle=1;fontSize=22;labelBackgroundColor=none;" parent="7WpZ0iJpJy3THZHLrlA9-124" vertex="1">
          <mxGeometry x="11.521335807050091" y="349.4111825167197" width="40.07421150278293" height="36.18879012448813" as="geometry" />
        </mxCell>
        <mxCell id="7WpZ0iJpJy3THZHLrlA9-100" value="&lt;font style=&quot;font-size: 18px;&quot;&gt;Trigger step function to validate image using Recognition Service. If the image is safe, Resize and move it to Published bucket. Unsafe images stay in same bucket for review &lt;/font&gt;" style="text;html=1;align=left;verticalAlign=top;spacingTop=-4;fontSize=14;labelBackgroundColor=none;whiteSpace=wrap;" parent="7WpZ0iJpJy3THZHLrlA9-124" vertex="1">
          <mxGeometry x="64.62" y="335.39" width="547.38" height="71.61" as="geometry" />
        </mxCell>
        <mxCell id="7WpZ0iJpJy3THZHLrlA9-101" value="7" style="rounded=1;whiteSpace=wrap;html=1;fillColor=#007CBD;strokeColor=none;fontColor=#FFFFFF;fontStyle=1;fontSize=22;labelBackgroundColor=none;" parent="7WpZ0iJpJy3THZHLrlA9-124" vertex="1">
          <mxGeometry x="11.52133580705009" y="429.9974618816358" width="40.07421150278293" height="36.18879012448813" as="geometry" />
        </mxCell>
        <mxCell id="7WpZ0iJpJy3THZHLrlA9-102" value="&lt;font style=&quot;font-size: 18px;&quot;&gt;Resized safe images in S3 bucket are exposed through CloudFront to use it in the front end&lt;/font&gt;" style="text;html=1;align=left;verticalAlign=top;spacingTop=-4;fontSize=14;labelBackgroundColor=none;whiteSpace=wrap;" parent="7WpZ0iJpJy3THZHLrlA9-124" vertex="1">
          <mxGeometry x="63.62" y="430.47" width="548.38" height="60.53" as="geometry" />
        </mxCell>
        <mxCell id="7WpZ0iJpJy3THZHLrlA9-103" value="8" style="rounded=1;whiteSpace=wrap;html=1;fillColor=#007CBD;strokeColor=none;fontColor=#FFFFFF;fontStyle=1;fontSize=22;labelBackgroundColor=none;" parent="7WpZ0iJpJy3THZHLrlA9-124" vertex="1">
          <mxGeometry x="11.52133580705009" y="505.996470796136" width="40.07421150278293" height="36.18879012448813" as="geometry" />
        </mxCell>
        <mxCell id="7WpZ0iJpJy3THZHLrlA9-104" value="&lt;font style=&quot;font-size: 18px;&quot;&gt;Update book follows same flow as Add Book&lt;/font&gt;" style="text;html=1;align=left;verticalAlign=top;spacingTop=-4;fontSize=14;labelBackgroundColor=none;whiteSpace=wrap;" parent="7WpZ0iJpJy3THZHLrlA9-124" vertex="1">
          <mxGeometry x="63.61781076066789" y="506.4726390872478" width="450.83487940630795" height="50.207184614816164" as="geometry" />
        </mxCell>
        <mxCell id="7WpZ0iJpJy3THZHLrlA9-106" value="4" style="rounded=1;whiteSpace=wrap;html=1;fillColor=#007CBD;strokeColor=none;fontColor=#FFFFFF;fontStyle=1;fontSize=22;labelBackgroundColor=none;" parent="7WpZ0iJpJy3THZHLrlA9-124" vertex="1">
          <mxGeometry x="11.521335807050091" y="213.0006822669081" width="40.07421150278293" height="36.18879012448813" as="geometry" />
        </mxCell>
        <mxCell id="7WpZ0iJpJy3THZHLrlA9-107" value="&lt;font style=&quot;font-size: 18px;&quot;&gt;Generate Presigned URL of the prefix for book id to upload multiple images&lt;/font&gt;" style="text;html=1;align=left;verticalAlign=top;spacingTop=-4;fontSize=14;labelBackgroundColor=none;whiteSpace=wrap;" parent="7WpZ0iJpJy3THZHLrlA9-124" vertex="1">
          <mxGeometry x="63.62" y="213.48" width="549.38" height="37.62" as="geometry" />
        </mxCell>
        <mxCell id="7WpZ0iJpJy3THZHLrlA9-31" value="&lt;font style=&quot;font-size: 18px;&quot;&gt;&lt;b&gt;Search Books&lt;/b&gt;&lt;/font&gt;" style="sketch=0;points=[[0,0,0],[0.25,0,0],[0.5,0,0],[0.75,0,0],[1,0,0],[0,1,0],[0.25,1,0],[0.5,1,0],[0.75,1,0],[1,1,0],[0,0.25,0],[0,0.5,0],[0,0.75,0],[1,0.25,0],[1,0.5,0],[1,0.75,0]];outlineConnect=0;fontColor=#232F3E;fillColor=#ED7100;strokeColor=#ffffff;dashed=0;verticalLabelPosition=bottom;verticalAlign=top;align=center;html=1;fontSize=12;fontStyle=0;aspect=fixed;shape=mxgraph.aws4.resourceIcon;resIcon=mxgraph.aws4.lambda;" parent="1" vertex="1">
          <mxGeometry x="1042.1442857142858" y="-698.2910504201681" width="78" height="78" as="geometry" />
        </mxCell>
        <mxCell id="7WpZ0iJpJy3THZHLrlA9-32" value="&lt;font style=&quot;font-size: 18px;&quot;&gt;&lt;b&gt;S3 - Published Image&lt;/b&gt;&lt;/font&gt;" style="sketch=0;points=[[0,0,0],[0.25,0,0],[0.5,0,0],[0.75,0,0],[1,0,0],[0,1,0],[0.25,1,0],[0.5,1,0],[0.75,1,0],[1,1,0],[0,0.25,0],[0,0.5,0],[0,0.75,0],[1,0.25,0],[1,0.5,0],[1,0.75,0]];outlineConnect=0;fontColor=#232F3E;fillColor=#7AA116;strokeColor=#ffffff;dashed=0;verticalLabelPosition=bottom;verticalAlign=top;align=center;html=1;fontSize=12;fontStyle=0;aspect=fixed;shape=mxgraph.aws4.resourceIcon;resIcon=mxgraph.aws4.s3;" parent="1" vertex="1">
          <mxGeometry x="641.6978571428572" y="-828.6512605042017" width="78" height="78" as="geometry" />
        </mxCell>
        <mxCell id="7WpZ0iJpJy3THZHLrlA9-33" value="&lt;font style=&quot;font-size: 18px;&quot;&gt;&lt;b&gt;CloudFront&lt;/b&gt;&lt;/font&gt;" style="sketch=0;points=[[0,0,0],[0.25,0,0],[0.5,0,0],[0.75,0,0],[1,0,0],[0,1,0],[0.25,1,0],[0.5,1,0],[0.75,1,0],[1,1,0],[0,0.25,0],[0,0.5,0],[0,0.75,0],[1,0.25,0],[1,0.5,0],[1,0.75,0]];outlineConnect=0;fontColor=#232F3E;fillColor=#8C4FFF;strokeColor=#ffffff;dashed=0;verticalLabelPosition=bottom;verticalAlign=top;align=center;html=1;fontSize=12;fontStyle=0;aspect=fixed;shape=mxgraph.aws4.resourceIcon;resIcon=mxgraph.aws4.cloudfront;" parent="1" vertex="1">
          <mxGeometry x="322.50142857142856" y="-828.6512605042017" width="78" height="78" as="geometry" />
        </mxCell>
        <mxCell id="7WpZ0iJpJy3THZHLrlA9-35" style="edgeStyle=orthogonalEdgeStyle;rounded=0;orthogonalLoop=1;jettySize=auto;html=1;exitX=0.5;exitY=0;exitDx=0;exitDy=0;exitPerimeter=0;entryX=1;entryY=0.5;entryDx=0;entryDy=0;entryPerimeter=0;" parent="1" source="7WpZ0iJpJy3THZHLrlA9-31" target="7WpZ0iJpJy3THZHLrlA9-32" edge="1">
          <mxGeometry relative="1" as="geometry" />
        </mxCell>
        <mxCell id="7WpZ0iJpJy3THZHLrlA9-34" style="edgeStyle=orthogonalEdgeStyle;rounded=0;orthogonalLoop=1;jettySize=auto;html=1;" parent="1" source="7WpZ0iJpJy3THZHLrlA9-32" target="7WpZ0iJpJy3THZHLrlA9-33" edge="1">
          <mxGeometry relative="1" as="geometry" />
        </mxCell>
        <mxCell id="7WpZ0iJpJy3THZHLrlA9-36" style="edgeStyle=orthogonalEdgeStyle;rounded=0;orthogonalLoop=1;jettySize=auto;html=1;" parent="1" source="7WpZ0iJpJy3THZHLrlA9-31" target="7WpZ0iJpJy3THZHLrlA9-42" edge="1">
          <mxGeometry relative="1" as="geometry">
            <mxPoint x="1483.2157142857143" y="-583.4264705882354" as="targetPoint" />
          </mxGeometry>
        </mxCell>
        <mxCell id="7WpZ0iJpJy3THZHLrlA9-42" value="&lt;div&gt;&lt;b&gt;&lt;font style=&quot;font-size: 18px;&quot;&gt;&lt;br&gt;&lt;/font&gt;&lt;/b&gt;&lt;/div&gt;&lt;div&gt;&lt;b&gt;&lt;font style=&quot;font-size: 18px;&quot;&gt;&lt;br&gt;&lt;/font&gt;&lt;/b&gt;&lt;/div&gt;&lt;div&gt;&lt;b&gt;&lt;font style=&quot;font-size: 18px;&quot;&gt;&lt;br&gt;&lt;/font&gt;&lt;/b&gt;&lt;/div&gt;&lt;div&gt;&lt;b&gt;&lt;font style=&quot;font-size: 18px;&quot;&gt;&lt;br&gt;&lt;/font&gt;&lt;/b&gt;&lt;/div&gt;&lt;div&gt;&lt;b&gt;&lt;font style=&quot;font-size: 18px;&quot;&gt;&amp;nbsp;&amp;nbsp;&amp;nbsp;&amp;nbsp;&amp;nbsp;&amp;nbsp;&amp;nbsp;&amp;nbsp;&amp;nbsp;&amp;nbsp;&amp;nbsp;&amp;nbsp;&amp;nbsp;&amp;nbsp;&amp;nbsp;&amp;nbsp;&amp;nbsp;&amp;nbsp;&amp;nbsp;&amp;nbsp;&amp;nbsp;&amp;nbsp;&amp;nbsp;&amp;nbsp;&amp;nbsp;&amp;nbsp;&amp;nbsp;&amp;nbsp;&amp;nbsp;&amp;nbsp;&amp;nbsp;&amp;nbsp;&amp;nbsp;&amp;nbsp;&amp;nbsp;&amp;nbsp;&amp;nbsp;&amp;nbsp;&amp;nbsp;&amp;nbsp;&amp;nbsp;&amp;nbsp;&amp;nbsp;&amp;nbsp;&amp;nbsp;&amp;nbsp;&amp;nbsp;&amp;nbsp;&amp;nbsp;&amp;nbsp;&amp;nbsp;&amp;nbsp;&amp;nbsp;&amp;nbsp;&amp;nbsp;&amp;nbsp;&amp;nbsp;&amp;nbsp;&amp;nbsp;&amp;nbsp;&amp;nbsp;&amp;nbsp;&amp;nbsp;&amp;nbsp;&amp;nbsp;&amp;nbsp;&amp;nbsp;&amp;nbsp;&amp;nbsp;&amp;nbsp;&amp;nbsp;&amp;nbsp;&amp;nbsp;&amp;nbsp;&amp;nbsp;&amp;nbsp;&amp;nbsp;&amp;nbsp;&amp;nbsp;&amp;nbsp;&amp;nbsp; Amazon DynamoDB&lt;/font&gt;&lt;/b&gt;&lt;/div&gt;" style="sketch=0;outlineConnect=0;fontColor=#232F3E;gradientColor=none;strokeColor=#ffffff;fillColor=#232F3E;dashed=0;verticalLabelPosition=middle;verticalAlign=bottom;align=center;html=1;whiteSpace=wrap;fontSize=10;fontStyle=1;spacing=3;shape=mxgraph.aws4.productIcon;prIcon=mxgraph.aws4.dynamodb;" parent="1" vertex="1">
          <mxGeometry x="1390.3585714285716" y="-643.3938235294117" width="92.85714285714286" height="118.08823529411764" as="geometry" />
        </mxCell>
        <mxCell id="7WpZ0iJpJy3THZHLrlA9-39" value="&lt;font style=&quot;font-size: 18px;&quot;&gt;&lt;b&gt;API Gateway&lt;/b&gt;&lt;/font&gt;" style="sketch=0;points=[[0,0,0],[0.25,0,0],[0.5,0,0],[0.75,0,0],[1,0,0],[0,1,0],[0.25,1,0],[0.5,1,0],[0.75,1,0],[1,1,0],[0,0.25,0],[0,0.5,0],[0,0.75,0],[1,0.25,0],[1,0.5,0],[1,0.75,0]];outlineConnect=0;fontColor=#232F3E;fillColor=#8C4FFF;strokeColor=#ffffff;dashed=0;verticalLabelPosition=bottom;verticalAlign=top;align=center;html=1;fontSize=12;fontStyle=0;aspect=fixed;shape=mxgraph.aws4.resourceIcon;resIcon=mxgraph.aws4.api_gateway;" parent="1" vertex="1">
          <mxGeometry x="160.00142857142856" y="-626.2173529411765" width="78" height="78" as="geometry" />
        </mxCell>
        <mxCell id="7WpZ0iJpJy3THZHLrlA9-40" style="edgeStyle=orthogonalEdgeStyle;rounded=0;orthogonalLoop=1;jettySize=auto;html=1;" parent="1" source="7WpZ0iJpJy3THZHLrlA9-39" target="7WpZ0iJpJy3THZHLrlA9-31" edge="1">
          <mxGeometry relative="1" as="geometry">
            <Array as="points">
              <mxPoint x="450.68" y="-587" />
              <mxPoint x="450.68" y="-656" />
            </Array>
          </mxGeometry>
        </mxCell>
        <mxCell id="7WpZ0iJpJy3THZHLrlA9-41" value="&lt;font style=&quot;font-size: 18px;&quot;&gt;&lt;b&gt;Search Books&lt;/b&gt;&lt;/font&gt;" style="edgeLabel;html=1;align=center;verticalAlign=middle;resizable=0;points=[];" parent="7WpZ0iJpJy3THZHLrlA9-40" vertex="1" connectable="0">
          <mxGeometry x="-0.1387" y="-2" relative="1" as="geometry">
            <mxPoint as="offset" />
          </mxGeometry>
        </mxCell>
        <mxCell id="7WpZ0iJpJy3THZHLrlA9-46" style="edgeStyle=orthogonalEdgeStyle;rounded=0;orthogonalLoop=1;jettySize=auto;html=1;" parent="1" source="7WpZ0iJpJy3THZHLrlA9-43" target="7WpZ0iJpJy3THZHLrlA9-42" edge="1">
          <mxGeometry relative="1" as="geometry" />
        </mxCell>
        <mxCell id="7WpZ0iJpJy3THZHLrlA9-43" value="&lt;b&gt;&lt;font style=&quot;font-size: 18px;&quot;&gt;Add Book&lt;/font&gt;&lt;/b&gt;" style="sketch=0;points=[[0,0,0],[0.25,0,0],[0.5,0,0],[0.75,0,0],[1,0,0],[0,1,0],[0.25,1,0],[0.5,1,0],[0.75,1,0],[1,1,0],[0,0.25,0],[0,0.5,0],[0,0.75,0],[1,0.25,0],[1,0.5,0],[1,0.75,0]];outlineConnect=0;fontColor=#232F3E;fillColor=#ED7100;strokeColor=#ffffff;dashed=0;verticalLabelPosition=bottom;verticalAlign=top;align=center;html=1;fontSize=12;fontStyle=0;aspect=fixed;shape=mxgraph.aws4.resourceIcon;resIcon=mxgraph.aws4.lambda;" parent="1" vertex="1">
          <mxGeometry x="1042.1442857142858" y="-542.6323529411765" width="78" height="78" as="geometry" />
        </mxCell>
        <mxCell id="7WpZ0iJpJy3THZHLrlA9-50" style="edgeStyle=orthogonalEdgeStyle;rounded=0;orthogonalLoop=1;jettySize=auto;html=1;" parent="1" source="7WpZ0iJpJy3THZHLrlA9-47" target="7WpZ0iJpJy3THZHLrlA9-42" edge="1">
          <mxGeometry relative="1" as="geometry">
            <mxPoint x="1378.7514285714285" y="-580.2058823529412" as="targetPoint" />
            <Array as="points">
              <mxPoint x="1255.68" y="-377" />
              <mxPoint x="1255.68" y="-584" />
            </Array>
          </mxGeometry>
        </mxCell>
        <mxCell id="7WpZ0iJpJy3THZHLrlA9-47" value="&lt;b&gt;&lt;font style=&quot;font-size: 18px;&quot;&gt;Update Book&lt;/font&gt;&lt;/b&gt;" style="sketch=0;points=[[0,0,0],[0.25,0,0],[0.5,0,0],[0.75,0,0],[1,0,0],[0,1,0],[0.25,1,0],[0.5,1,0],[0.75,1,0],[1,1,0],[0,0.25,0],[0,0.5,0],[0,0.75,0],[1,0.25,0],[1,0.5,0],[1,0.75,0]];outlineConnect=0;fontColor=#232F3E;fillColor=#ED7100;strokeColor=#ffffff;dashed=0;verticalLabelPosition=bottom;verticalAlign=top;align=center;html=1;fontSize=12;fontStyle=0;aspect=fixed;shape=mxgraph.aws4.resourceIcon;resIcon=mxgraph.aws4.lambda;" parent="1" vertex="1">
          <mxGeometry x="1042.1442857142858" y="-419.17647058823536" width="78" height="78" as="geometry" />
        </mxCell>
        <mxCell id="8pEp6zr-1dx9gRKw9EJ5-4" style="edgeStyle=orthogonalEdgeStyle;rounded=0;orthogonalLoop=1;jettySize=auto;html=1;exitX=1;exitY=0.5;exitDx=0;exitDy=0;exitPerimeter=0;" parent="1" source="7WpZ0iJpJy3THZHLrlA9-51" edge="1">
          <mxGeometry relative="1" as="geometry">
            <Array as="points">
              <mxPoint x="900" y="-88" />
              <mxPoint x="900" y="-80" />
              <mxPoint x="1000" y="-80" />
              <mxPoint x="1048" y="-81" />
            </Array>
            <mxPoint x="1047.6800000000003" y="-80" as="targetPoint" />
          </mxGeometry>
        </mxCell>
        <mxCell id="8pEp6zr-1dx9gRKw9EJ5-5" value="&lt;div&gt;&lt;font style=&quot;font-size: 18px;&quot;&gt;&lt;b&gt;Image Upload&amp;nbsp;&lt;/b&gt;&lt;/font&gt;&lt;/div&gt;&lt;div&gt;&lt;font style=&quot;font-size: 18px;&quot;&gt;&lt;b&gt;Event&lt;/b&gt;&lt;/font&gt;&lt;/div&gt;" style="edgeLabel;html=1;align=center;verticalAlign=middle;resizable=0;points=[];" parent="8pEp6zr-1dx9gRKw9EJ5-4" vertex="1" connectable="0">
          <mxGeometry x="0.2351" y="2" relative="1" as="geometry">
            <mxPoint x="-9" y="13" as="offset" />
          </mxGeometry>
        </mxCell>
        <mxCell id="7WpZ0iJpJy3THZHLrlA9-51" value="&lt;b&gt;&lt;font style=&quot;font-size: 18px;&quot;&gt;S3 - Images to Validate&lt;/font&gt;&lt;/b&gt;" style="sketch=0;points=[[0,0,0],[0.25,0,0],[0.5,0,0],[0.75,0,0],[1,0,0],[0,1,0],[0.25,1,0],[0.5,1,0],[0.75,1,0],[1,1,0],[0,0.25,0],[0,0.5,0],[0,0.75,0],[1,0.25,0],[1,0.5,0],[1,0.75,0]];outlineConnect=0;fontColor=#232F3E;fillColor=#7AA116;strokeColor=#ffffff;dashed=0;verticalLabelPosition=bottom;verticalAlign=top;align=center;html=1;fontSize=12;fontStyle=0;aspect=fixed;shape=mxgraph.aws4.resourceIcon;resIcon=mxgraph.aws4.s3;movable=1;resizable=1;rotatable=1;deletable=1;editable=1;locked=0;connectable=1;" parent="1" vertex="1">
          <mxGeometry x="791.9957142857143" y="-127.0035294117647" width="78" height="78" as="geometry" />
        </mxCell>
        <mxCell id="7WpZ0iJpJy3THZHLrlA9-53" style="edgeStyle=orthogonalEdgeStyle;rounded=0;orthogonalLoop=1;jettySize=auto;html=1;entryX=0;entryY=0.5;entryDx=0;entryDy=0;entryPerimeter=0;" parent="1" source="7WpZ0iJpJy3THZHLrlA9-80" target="7WpZ0iJpJy3THZHLrlA9-51" edge="1">
          <mxGeometry relative="1" as="geometry">
            <mxPoint x="1137.68" y="-243" as="sourcePoint" />
            <Array as="points">
              <mxPoint x="59" y="-88" />
            </Array>
          </mxGeometry>
        </mxCell>
        <mxCell id="wSWwaxY8uc_JUpJFEZCw-5" value="&lt;font style=&quot;font-size: 18px;&quot;&gt;&lt;b&gt;Upload Image using Pre-Signed URL&lt;/b&gt;&lt;/font&gt;" style="edgeLabel;html=1;align=center;verticalAlign=middle;resizable=0;points=[];" parent="7WpZ0iJpJy3THZHLrlA9-53" vertex="1" connectable="0">
          <mxGeometry x="0.449" y="-1" relative="1" as="geometry">
            <mxPoint as="offset" />
          </mxGeometry>
        </mxCell>
        <mxCell id="7WpZ0iJpJy3THZHLrlA9-65" style="edgeStyle=orthogonalEdgeStyle;rounded=0;orthogonalLoop=1;jettySize=auto;html=1;exitX=0;exitY=0.5;exitDx=0;exitDy=0;exitPerimeter=0;" parent="1" source="CKhmzH0PO2RPskwirpl6-7" target="7WpZ0iJpJy3THZHLrlA9-32" edge="1">
          <mxGeometry relative="1" as="geometry">
            <Array as="points">
              <mxPoint x="1546" y="289" />
              <mxPoint x="1546" y="-883" />
              <mxPoint x="681" y="-883" />
            </Array>
            <mxPoint x="1453.1800000000003" y="-204" as="sourcePoint" />
          </mxGeometry>
        </mxCell>
        <mxCell id="wSWwaxY8uc_JUpJFEZCw-4" value="&lt;div&gt;&lt;font style=&quot;font-size: 18px;&quot;&gt;&lt;b&gt;Publish Valid&amp;nbsp;&lt;/b&gt;&lt;/font&gt;&lt;/div&gt;&lt;div&gt;&lt;font style=&quot;font-size: 18px;&quot;&gt;&lt;b&gt;Image&lt;/b&gt;&lt;/font&gt;&lt;/div&gt;" style="edgeLabel;html=1;align=center;verticalAlign=middle;resizable=0;points=[];" parent="7WpZ0iJpJy3THZHLrlA9-65" vertex="1" connectable="0">
          <mxGeometry x="-0.74" y="3" relative="1" as="geometry">
            <mxPoint x="2" y="-64" as="offset" />
          </mxGeometry>
        </mxCell>
        <mxCell id="7WpZ0iJpJy3THZHLrlA9-69" style="edgeStyle=orthogonalEdgeStyle;rounded=0;orthogonalLoop=1;jettySize=auto;html=1;" parent="1" source="7WpZ0iJpJy3THZHLrlA9-67" target="7WpZ0iJpJy3THZHLrlA9-43" edge="1">
          <mxGeometry relative="1" as="geometry" />
        </mxCell>
        <mxCell id="7WpZ0iJpJy3THZHLrlA9-74" value="&lt;font style=&quot;font-size: 18px;&quot;&gt;&lt;b&gt;Add Book&lt;/b&gt;&lt;/font&gt;" style="edgeLabel;html=1;align=center;verticalAlign=middle;resizable=0;points=[];" parent="7WpZ0iJpJy3THZHLrlA9-69" vertex="1" connectable="0">
          <mxGeometry x="-0.1615" y="4" relative="1" as="geometry">
            <mxPoint as="offset" />
          </mxGeometry>
        </mxCell>
        <mxCell id="7WpZ0iJpJy3THZHLrlA9-67" value="&lt;font style=&quot;font-size: 18px;&quot;&gt;&lt;b&gt;Cognito Authorizer&lt;/b&gt;&lt;/font&gt;" style="sketch=0;points=[[0,0,0],[0.25,0,0],[0.5,0,0],[0.75,0,0],[1,0,0],[0,1,0],[0.25,1,0],[0.5,1,0],[0.75,1,0],[1,1,0],[0,0.25,0],[0,0.5,0],[0,0.75,0],[1,0.25,0],[1,0.5,0],[1,0.75,0]];outlineConnect=0;fontColor=#232F3E;fillColor=#DD344C;strokeColor=#ffffff;dashed=0;verticalLabelPosition=bottom;verticalAlign=top;align=center;html=1;fontSize=12;fontStyle=0;aspect=fixed;shape=mxgraph.aws4.resourceIcon;resIcon=mxgraph.aws4.cognito;" parent="1" vertex="1">
          <mxGeometry x="475.18" y="-542.63" width="78" height="78" as="geometry" />
        </mxCell>
        <mxCell id="7WpZ0iJpJy3THZHLrlA9-68" style="edgeStyle=orthogonalEdgeStyle;rounded=0;orthogonalLoop=1;jettySize=auto;html=1;entryX=0;entryY=0.5;entryDx=0;entryDy=0;entryPerimeter=0;" parent="1" source="7WpZ0iJpJy3THZHLrlA9-39" target="7WpZ0iJpJy3THZHLrlA9-67" edge="1">
          <mxGeometry relative="1" as="geometry" />
        </mxCell>
        <mxCell id="7WpZ0iJpJy3THZHLrlA9-71" style="edgeStyle=orthogonalEdgeStyle;rounded=0;orthogonalLoop=1;jettySize=auto;html=1;" parent="1" source="7WpZ0iJpJy3THZHLrlA9-70" target="7WpZ0iJpJy3THZHLrlA9-47" edge="1">
          <mxGeometry relative="1" as="geometry" />
        </mxCell>
        <mxCell id="7WpZ0iJpJy3THZHLrlA9-75" value="&lt;font style=&quot;font-size: 18px;&quot;&gt;&lt;b&gt;Update Book&lt;/b&gt;&lt;/font&gt;" style="edgeLabel;html=1;align=center;verticalAlign=middle;resizable=0;points=[];" parent="7WpZ0iJpJy3THZHLrlA9-71" vertex="1" connectable="0">
          <mxGeometry x="-0.141" relative="1" as="geometry">
            <mxPoint as="offset" />
          </mxGeometry>
        </mxCell>
        <mxCell id="7WpZ0iJpJy3THZHLrlA9-70" value="&lt;font style=&quot;font-size: 18px;&quot;&gt;&lt;b&gt;Cognito Authorizer&lt;/b&gt;&lt;/font&gt;" style="sketch=0;points=[[0,0,0],[0.25,0,0],[0.5,0,0],[0.75,0,0],[1,0,0],[0,1,0],[0.25,1,0],[0.5,1,0],[0.75,1,0],[1,1,0],[0,0.25,0],[0,0.5,0],[0,0.75,0],[1,0.25,0],[1,0.5,0],[1,0.75,0]];outlineConnect=0;fontColor=#232F3E;fillColor=#DD344C;strokeColor=#ffffff;dashed=0;verticalLabelPosition=bottom;verticalAlign=top;align=center;html=1;fontSize=12;fontStyle=0;aspect=fixed;shape=mxgraph.aws4.resourceIcon;resIcon=mxgraph.aws4.cognito;" parent="1" vertex="1">
          <mxGeometry x="475.18" y="-419.18000000000006" width="78" height="78" as="geometry" />
        </mxCell>
        <mxCell id="7WpZ0iJpJy3THZHLrlA9-73" value="1" style="rounded=1;whiteSpace=wrap;html=1;fillColor=#007CBD;strokeColor=none;fontColor=#FFFFFF;fontStyle=1;fontSize=22;labelBackgroundColor=none;" parent="1" vertex="1">
          <mxGeometry x="645.1800000000001" y="-698.29" width="40" height="38" as="geometry" />
        </mxCell>
        <mxCell id="7WpZ0iJpJy3THZHLrlA9-87" value="2" style="rounded=1;whiteSpace=wrap;html=1;fillColor=#007CBD;strokeColor=none;fontColor=#FFFFFF;fontStyle=1;fontSize=22;labelBackgroundColor=none;" parent="1" vertex="1">
          <mxGeometry x="645.1800000000001" y="-548.22" width="40" height="38" as="geometry" />
        </mxCell>
        <mxCell id="7WpZ0iJpJy3THZHLrlA9-88" value="3" style="rounded=1;whiteSpace=wrap;html=1;fillColor=#007CBD;strokeColor=none;fontColor=#FFFFFF;fontStyle=1;fontSize=22;labelBackgroundColor=none;" parent="1" vertex="1">
          <mxGeometry x="1203.18" y="-548.22" width="40" height="38" as="geometry" />
        </mxCell>
        <mxCell id="7WpZ0iJpJy3THZHLrlA9-89" value="4" style="rounded=1;whiteSpace=wrap;html=1;fillColor=#007CBD;strokeColor=none;fontColor=#FFFFFF;fontStyle=1;fontSize=22;labelBackgroundColor=none;" parent="1" vertex="1">
          <mxGeometry x="952.84" y="-283" width="40" height="38" as="geometry" />
        </mxCell>
        <mxCell id="7WpZ0iJpJy3THZHLrlA9-91" value="5" style="rounded=1;whiteSpace=wrap;html=1;fillColor=#007CBD;strokeColor=none;fontColor=#FFFFFF;fontStyle=1;fontSize=22;labelBackgroundColor=none;movable=1;resizable=1;rotatable=1;deletable=1;editable=1;locked=0;connectable=1;" parent="1" vertex="1">
          <mxGeometry x="939" y="-130" width="40" height="38" as="geometry" />
        </mxCell>
        <mxCell id="7WpZ0iJpJy3THZHLrlA9-92" value="6" style="rounded=1;whiteSpace=wrap;html=1;fillColor=#007CBD;strokeColor=none;fontColor=#FFFFFF;fontStyle=1;fontSize=22;labelBackgroundColor=none;" parent="1" vertex="1">
          <mxGeometry x="1170" y="-140" width="40" height="38" as="geometry" />
        </mxCell>
        <mxCell id="7WpZ0iJpJy3THZHLrlA9-93" value="8" style="rounded=1;whiteSpace=wrap;html=1;fillColor=#007CBD;strokeColor=none;fontColor=#FFFFFF;fontStyle=1;fontSize=22;labelBackgroundColor=none;" parent="1" vertex="1">
          <mxGeometry x="645.1800000000001" y="-423" width="40" height="38" as="geometry" />
        </mxCell>
        <mxCell id="7WpZ0iJpJy3THZHLrlA9-94" value="7" style="rounded=1;whiteSpace=wrap;html=1;fillColor=#007CBD;strokeColor=none;fontColor=#FFFFFF;fontStyle=1;fontSize=22;labelBackgroundColor=none;" parent="1" vertex="1">
          <mxGeometry x="513.1800000000001" y="-843" width="40" height="38" as="geometry" />
        </mxCell>
        <mxCell id="7WpZ0iJpJy3THZHLrlA9-72" style="edgeStyle=orthogonalEdgeStyle;rounded=0;orthogonalLoop=1;jettySize=auto;html=1;entryX=0;entryY=0.5;entryDx=0;entryDy=0;entryPerimeter=0;" parent="1" source="7WpZ0iJpJy3THZHLrlA9-39" target="7WpZ0iJpJy3THZHLrlA9-70" edge="1">
          <mxGeometry relative="1" as="geometry">
            <Array as="points">
              <mxPoint x="355.68" y="-587" />
              <mxPoint x="355.68" y="-380" />
            </Array>
          </mxGeometry>
        </mxCell>
        <mxCell id="7WpZ0iJpJy3THZHLrlA9-115" value="&lt;b&gt;&lt;font style=&quot;font-size: 18px;&quot;&gt;Generate Pre-signed URL&lt;/font&gt;&lt;/b&gt;" style="sketch=0;points=[[0,0,0],[0.25,0,0],[0.5,0,0],[0.75,0,0],[1,0,0],[0,1,0],[0.25,1,0],[0.5,1,0],[0.75,1,0],[1,1,0],[0,0.25,0],[0,0.5,0],[0,0.75,0],[1,0.25,0],[1,0.5,0],[1,0.75,0]];outlineConnect=0;fontColor=#232F3E;fillColor=#ED7100;strokeColor=#ffffff;dashed=0;verticalLabelPosition=bottom;verticalAlign=top;align=center;html=1;fontSize=12;fontStyle=0;aspect=fixed;shape=mxgraph.aws4.resourceIcon;resIcon=mxgraph.aws4.lambda;" parent="1" vertex="1">
          <mxGeometry x="1047.6842857142858" y="-282.9964705882353" width="78" height="78" as="geometry" />
        </mxCell>
        <mxCell id="7WpZ0iJpJy3THZHLrlA9-116" value="&lt;font style=&quot;font-size: 18px;&quot;&gt;&lt;b&gt;Cognito Authorizer&lt;/b&gt;&lt;/font&gt;" style="sketch=0;points=[[0,0,0],[0.25,0,0],[0.5,0,0],[0.75,0,0],[1,0,0],[0,1,0],[0.25,1,0],[0.5,1,0],[0.75,1,0],[1,1,0],[0,0.25,0],[0,0.5,0],[0,0.75,0],[1,0.25,0],[1,0.5,0],[1,0.75,0]];outlineConnect=0;fontColor=#232F3E;fillColor=#DD344C;strokeColor=#ffffff;dashed=0;verticalLabelPosition=bottom;verticalAlign=top;align=center;html=1;fontSize=12;fontStyle=0;aspect=fixed;shape=mxgraph.aws4.resourceIcon;resIcon=mxgraph.aws4.cognito;" parent="1" vertex="1">
          <mxGeometry x="475.18" y="-273" width="78" height="78" as="geometry" />
        </mxCell>
        <mxCell id="7WpZ0iJpJy3THZHLrlA9-118" style="edgeStyle=orthogonalEdgeStyle;rounded=0;orthogonalLoop=1;jettySize=auto;html=1;entryX=0;entryY=0.641;entryDx=0;entryDy=0;entryPerimeter=0;" parent="1" source="7WpZ0iJpJy3THZHLrlA9-116" target="7WpZ0iJpJy3THZHLrlA9-115" edge="1">
          <mxGeometry relative="1" as="geometry" />
        </mxCell>
        <mxCell id="7WpZ0iJpJy3THZHLrlA9-120" value="&lt;font style=&quot;font-size: 18px;&quot;&gt;&lt;b&gt;Request Pre-Signed URL&lt;/b&gt;&lt;/font&gt;" style="edgeLabel;html=1;align=center;verticalAlign=middle;resizable=0;points=[];" parent="7WpZ0iJpJy3THZHLrlA9-118" vertex="1" connectable="0">
          <mxGeometry x="-0.1705" y="3" relative="1" as="geometry">
            <mxPoint as="offset" />
          </mxGeometry>
        </mxCell>
        <mxCell id="7WpZ0iJpJy3THZHLrlA9-117" style="edgeStyle=orthogonalEdgeStyle;rounded=0;orthogonalLoop=1;jettySize=auto;html=1;" parent="1" source="7WpZ0iJpJy3THZHLrlA9-39" target="7WpZ0iJpJy3THZHLrlA9-116" edge="1">
          <mxGeometry relative="1" as="geometry">
            <Array as="points">
              <mxPoint x="357.68" y="-587" />
              <mxPoint x="357.68" y="-254" />
            </Array>
          </mxGeometry>
        </mxCell>
        <mxCell id="7WpZ0iJpJy3THZHLrlA9-119" style="edgeStyle=orthogonalEdgeStyle;rounded=0;orthogonalLoop=1;jettySize=auto;html=1;exitX=0.5;exitY=1;exitDx=0;exitDy=0;exitPerimeter=0;" parent="1" source="7WpZ0iJpJy3THZHLrlA9-115" target="7WpZ0iJpJy3THZHLrlA9-51" edge="1">
          <mxGeometry relative="1" as="geometry">
            <Array as="points">
              <mxPoint x="1087" y="-160" />
              <mxPoint x="831" y="-160" />
            </Array>
          </mxGeometry>
        </mxCell>
        <mxCell id="7WpZ0iJpJy3THZHLrlA9-121" value="&lt;u&gt;&lt;font style=&quot;font-size: 24px;&quot;&gt;&lt;b&gt;&lt;font&gt;Book/Inventory Service&lt;/font&gt;&lt;/b&gt;&lt;/font&gt;&lt;/u&gt;" style="text;html=1;align=center;verticalAlign=middle;resizable=0;points=[];autosize=1;strokeColor=none;fillColor=none;" parent="1" vertex="1">
          <mxGeometry x="715.0000000000001" y="-944" width="285" height="41" as="geometry" />
        </mxCell>
        <mxCell id="CKhmzH0PO2RPskwirpl6-4" value="&lt;font style=&quot;font-size: 18px;&quot;&gt;&lt;b&gt;Validate Image Workflow&lt;/b&gt;&lt;/font&gt;" style="sketch=0;points=[[0,0,0],[0.25,0,0],[0.5,0,0],[0.75,0,0],[1,0,0],[0,1,0],[0.25,1,0],[0.5,1,0],[0.75,1,0],[1,1,0],[0,0.25,0],[0,0.5,0],[0,0.75,0],[1,0.25,0],[1,0.5,0],[1,0.75,0]];outlineConnect=0;fontColor=#232F3E;fillColor=#E7157B;strokeColor=#ffffff;dashed=0;verticalLabelPosition=bottom;verticalAlign=top;align=center;html=1;fontSize=12;fontStyle=0;aspect=fixed;shape=mxgraph.aws4.resourceIcon;resIcon=mxgraph.aws4.step_functions;" parent="1" vertex="1">
          <mxGeometry x="1290" y="-127" width="78" height="78" as="geometry" />
        </mxCell>
        <mxCell id="CKhmzH0PO2RPskwirpl6-5" value="&lt;font style=&quot;font-size: 18px;&quot;&gt;&lt;b&gt;Image Validator&lt;/b&gt;&lt;/font&gt;" style="sketch=0;points=[[0,0,0],[0.25,0,0],[0.5,0,0],[0.75,0,0],[1,0,0],[0,1,0],[0.25,1,0],[0.5,1,0],[0.75,1,0],[1,1,0],[0,0.25,0],[0,0.5,0],[0,0.75,0],[1,0.25,0],[1,0.5,0],[1,0.75,0]];outlineConnect=0;fontColor=#232F3E;fillColor=#01A88D;strokeColor=#ffffff;dashed=0;verticalLabelPosition=bottom;verticalAlign=top;align=center;html=1;fontSize=12;fontStyle=0;aspect=fixed;shape=mxgraph.aws4.resourceIcon;resIcon=mxgraph.aws4.rekognition_2;" parent="1" vertex="1">
          <mxGeometry x="1405.22" y="168" width="78" height="78" as="geometry" />
        </mxCell>
        <mxCell id="CKhmzH0PO2RPskwirpl6-8" style="edgeStyle=orthogonalEdgeStyle;rounded=0;orthogonalLoop=1;jettySize=auto;html=1;exitX=0.5;exitY=1;exitDx=0;exitDy=0;exitPerimeter=0;" parent="1" source="veWnR6rFRMyaUHu4d1lK-5" target="CKhmzH0PO2RPskwirpl6-7" edge="1">
          <mxGeometry relative="1" as="geometry" />
        </mxCell>
        <mxCell id="CKhmzH0PO2RPskwirpl6-9" value="&lt;font style=&quot;font-size: 18px;&quot;&gt;&lt;b&gt;Yes&lt;/b&gt;&lt;/font&gt;" style="edgeLabel;html=1;align=center;verticalAlign=middle;resizable=0;points=[];" parent="CKhmzH0PO2RPskwirpl6-8" vertex="1" connectable="0">
          <mxGeometry x="0.2332" y="-1" relative="1" as="geometry">
            <mxPoint x="1" y="-10" as="offset" />
          </mxGeometry>
        </mxCell>
        <mxCell id="CKhmzH0PO2RPskwirpl6-10" style="edgeStyle=orthogonalEdgeStyle;rounded=0;orthogonalLoop=1;jettySize=auto;html=1;exitX=1;exitY=0.5;exitDx=0;exitDy=0;exitPerimeter=0;" parent="1" source="CKhmzH0PO2RPskwirpl6-6" target="CKhmzH0PO2RPskwirpl6-5" edge="1">
          <mxGeometry relative="1" as="geometry" />
        </mxCell>
        <mxCell id="CKhmzH0PO2RPskwirpl6-15" value="&lt;div&gt;&lt;font style=&quot;font-size: 18px;&quot;&gt;&lt;b&gt;Validate&amp;nbsp;&lt;/b&gt;&lt;/font&gt;&lt;/div&gt;&lt;div&gt;&lt;font style=&quot;font-size: 18px;&quot;&gt;&lt;b&gt;Image&lt;/b&gt;&lt;/font&gt;&lt;/div&gt;" style="edgeLabel;html=1;align=center;verticalAlign=middle;resizable=0;points=[];" parent="CKhmzH0PO2RPskwirpl6-10" vertex="1" connectable="0">
          <mxGeometry x="0.2908" y="-2" relative="1" as="geometry">
            <mxPoint as="offset" />
          </mxGeometry>
        </mxCell>
        <mxCell id="CKhmzH0PO2RPskwirpl6-6" value="&lt;font style=&quot;font-size: 18px;&quot;&gt;&lt;b&gt;Validate Image&lt;/b&gt;&lt;/font&gt;" style="sketch=0;points=[[0,0,0],[0.25,0,0],[0.5,0,0],[0.75,0,0],[1,0,0],[0,1,0],[0.25,1,0],[0.5,1,0],[0.75,1,0],[1,1,0],[0,0.25,0],[0,0.5,0],[0,0.75,0],[1,0.25,0],[1,0.5,0],[1,0.75,0]];outlineConnect=0;fontColor=#232F3E;fillColor=#ED7100;strokeColor=#ffffff;dashed=0;verticalLabelPosition=bottom;verticalAlign=top;align=center;html=1;fontSize=12;fontStyle=0;aspect=fixed;shape=mxgraph.aws4.resourceIcon;resIcon=mxgraph.aws4.lambda;" parent="1" vertex="1">
          <mxGeometry x="1290.0042857142855" y="0.0035294117647026724" width="78" height="78" as="geometry" />
        </mxCell>
        <mxCell id="CKhmzH0PO2RPskwirpl6-7" value="&lt;font style=&quot;font-size: 18px;&quot;&gt;&lt;b&gt;Resize Image&lt;/b&gt;&lt;/font&gt;" style="sketch=0;points=[[0,0,0],[0.25,0,0],[0.5,0,0],[0.75,0,0],[1,0,0],[0,1,0],[0.25,1,0],[0.5,1,0],[0.75,1,0],[1,1,0],[0,0.25,0],[0,0.5,0],[0,0.75,0],[1,0.25,0],[1,0.5,0],[1,0.75,0]];outlineConnect=0;fontColor=#232F3E;fillColor=#ED7100;strokeColor=#ffffff;dashed=0;verticalLabelPosition=bottom;verticalAlign=top;align=center;html=1;fontSize=12;fontStyle=0;aspect=fixed;shape=mxgraph.aws4.resourceIcon;resIcon=mxgraph.aws4.lambda;" parent="1" vertex="1">
          <mxGeometry x="1292.0042857142855" y="250.0035294117647" width="78" height="78" as="geometry" />
        </mxCell>
        <mxCell id="CKhmzH0PO2RPskwirpl6-16" style="edgeStyle=orthogonalEdgeStyle;rounded=0;orthogonalLoop=1;jettySize=auto;html=1;entryX=0;entryY=0.5;entryDx=0;entryDy=0;entryPerimeter=0;" parent="1" target="CKhmzH0PO2RPskwirpl6-4" edge="1">
          <mxGeometry relative="1" as="geometry">
            <mxPoint x="1125.6800000000003" y="-88" as="sourcePoint" />
          </mxGeometry>
        </mxCell>
        <mxCell id="CKhmzH0PO2RPskwirpl6-17" value="&lt;b&gt;&lt;font style=&quot;font-size: 18px;&quot;&gt;Validate Image&lt;/font&gt;&lt;/b&gt;" style="edgeLabel;html=1;align=center;verticalAlign=middle;resizable=0;points=[];" parent="CKhmzH0PO2RPskwirpl6-16" vertex="1" connectable="0">
          <mxGeometry x="-0.0397" relative="1" as="geometry">
            <mxPoint as="offset" />
          </mxGeometry>
        </mxCell>
        <mxCell id="veWnR6rFRMyaUHu4d1lK-2" style="edgeStyle=orthogonalEdgeStyle;rounded=0;orthogonalLoop=1;jettySize=auto;html=1;entryX=0.5;entryY=0;entryDx=0;entryDy=0;entryPerimeter=0;" parent="1" source="CKhmzH0PO2RPskwirpl6-4" target="CKhmzH0PO2RPskwirpl6-6" edge="1">
          <mxGeometry relative="1" as="geometry" />
        </mxCell>
        <mxCell id="veWnR6rFRMyaUHu4d1lK-3" value="" style="edgeStyle=orthogonalEdgeStyle;rounded=0;orthogonalLoop=1;jettySize=auto;html=1;exitX=0.5;exitY=1;exitDx=0;exitDy=0;exitPerimeter=0;" parent="1" source="CKhmzH0PO2RPskwirpl6-6" target="veWnR6rFRMyaUHu4d1lK-5" edge="1">
          <mxGeometry relative="1" as="geometry">
            <mxPoint x="1329" y="78" as="sourcePoint" />
            <mxPoint x="1329" y="190" as="targetPoint" />
          </mxGeometry>
        </mxCell>
        <mxCell id="veWnR6rFRMyaUHu4d1lK-5" value="&lt;div&gt;&lt;b&gt;&lt;font style=&quot;font-size: 18px;&quot;&gt;Is image&amp;nbsp;&lt;/font&gt;&lt;/b&gt;&lt;/div&gt;&lt;div&gt;&lt;b&gt;&lt;font size=&quot;3&quot;&gt;safe?&lt;/font&gt;&lt;/b&gt;&lt;/div&gt;" style="rhombus;whiteSpace=wrap;html=1;" parent="1" vertex="1">
          <mxGeometry x="1290" y="124" width="80" height="80" as="geometry" />
        </mxCell>
        <mxCell id="veWnR6rFRMyaUHu4d1lK-7" style="edgeStyle=orthogonalEdgeStyle;rounded=0;orthogonalLoop=1;jettySize=auto;html=1;entryX=0.5;entryY=1;entryDx=0;entryDy=0;entryPerimeter=0;" parent="1" source="veWnR6rFRMyaUHu4d1lK-5" target="7WpZ0iJpJy3THZHLrlA9-51" edge="1">
          <mxGeometry relative="1" as="geometry" />
        </mxCell>
        <mxCell id="veWnR6rFRMyaUHu4d1lK-8" value="&lt;font style=&quot;font-size: 18px;&quot;&gt;&lt;b&gt;No, Leave it in the bucket for Review&lt;/b&gt;&lt;/font&gt;" style="edgeLabel;html=1;align=center;verticalAlign=middle;resizable=0;points=[];" parent="veWnR6rFRMyaUHu4d1lK-7" vertex="1" connectable="0">
          <mxGeometry x="-0.2035" y="-2" relative="1" as="geometry">
            <mxPoint as="offset" />
          </mxGeometry>
        </mxCell>
        <mxCell id="veWnR6rFRMyaUHu4d1lK-10" value="" style="sketch=0;outlineConnect=0;fontColor=#232F3E;gradientColor=none;fillColor=#E7157B;strokeColor=none;dashed=0;verticalLabelPosition=bottom;verticalAlign=top;align=center;html=1;fontSize=12;fontStyle=0;aspect=fixed;pointerEvents=1;shape=mxgraph.aws4.event;" parent="1" vertex="1">
          <mxGeometry x="1060" y="-130" width="78" height="78" as="geometry" />
        </mxCell>
      </root>
    </mxGraphModel>
  </diagram>
</mxfile>
